<svg xmlns="http://www.w3.org/2000/svg" viewBox="0 0 32 32" width="32" height="32">
  <circle cx="16" cy="16" r="16" fill="#F7931A"/>
  <!-- Bitcoin ₿ mark -->
  <path fill="#fff" d="M22.5 14.05c.28-1.9-1.16-2.92-3.13-3.6l.64-2.56-1.56-.39-.62 2.5c-.41-.1-.83-.2-1.25-.29l.63-2.52-1.56-.39-.64 2.56c-.34-.08-.67-.15-.99-.23l.01-.01-2.15-.54-.42 1.67s1.16.27 1.13.28c.63.16.75.58.73.91l-.73 2.93c.04.01.1.03.17.05l-.18-.05-1.02 4.1c-.08.19-.28.48-.72.37.02.03-1.13-.28-1.13-.28l-.78 1.79 2.03.5c.38.1.75.2 1.11.29l-.65 2.59 1.56.39.64-2.56c.43.12.84.22 1.24.32l-.64 2.55 1.56.39.65-2.59c2.67.5 4.67.3 5.51-2.11.68-1.94-.03-3.06-1.43-3.79 1.02-.24 1.79-.91 2-2.3zm-3.58 5.01c-.48 1.94-3.75.89-4.81.63l.86-3.44c1.06.27 4.46.79 3.95 2.81zm.49-5.04c-.44 1.76-3.17.87-4.05.65l.78-3.12c.88.22 3.72.63 3.27 2.47z"/>
</svg>
