<svg xmlns="http://www.w3.org/2000/svg" viewBox="0 0 32 32" width="32" height="32">
  <circle cx="16" cy="16" r="16" fill="#000000"/>
  <defs>
    <linearGradient id="sol" x1="9" y1="22" x2="23" y2="10" gradientUnits="userSpaceOnUse">
      <stop offset="0" stop-color="#9945FF"/>
      <stop offset="1" stop-color="#14F195"/>
    </linearGradient>
  </defs>
  <!-- Three slanted bars (Solana mark). -->
  <path fill="url(#sol)" d="M10.4 20.1a.7.7 0 0 1 .5-.2h12.0a.35.35 0 0 1 .25.6l-2.4 2.4a.7.7 0 0 1-.5.2H8.0a.35.35 0 0 1-.25-.6z"/>
  <path fill="url(#sol)" d="M10.4 9.1a.7.7 0 0 1 .5-.2h12.0a.35.35 0 0 1 .25.6l-2.4 2.4a.7.7 0 0 1-.5.2H8.0a.35.35 0 0 1-.25-.6z"/>
  <path fill="url(#sol)" d="M20.85 14.55a.7.7 0 0 0-.5-.2H8.35a.35.35 0 0 0-.25.6l2.4 2.4a.7.7 0 0 0 .5.2h12.0a.35.35 0 0 0 .25-.6z"/>
</svg>
